<svg aria-hidden="true" style="position: absolute; width: 0; height: 0; overflow: hidden;" version="1.1" xmlns="http://www.w3.org/2000/svg" xmlns:xlink="http://www.w3.org/1999/xlink">
<defs>
<symbol id="icon-instagram-1" viewBox="0 0 32 32">
<path fill="none" stroke="" style="stroke" stroke-linejoin="round" stroke-linecap="round" stroke-miterlimit="4" stroke-width="2.0800" d="M22.666 2.666h-13.333c-3.682 0-6.667 2.985-6.667 6.667v13.333c0 3.682 2.985 6.667 6.667 6.667h13.333c3.682 0 6.667-2.985 6.667-6.667v-13.333c0-3.682-2.985-6.667-6.667-6.667z"></path>
<path fill="none" stroke="" style="stroke" stroke-linejoin="round" stroke-linecap="round" stroke-miterlimit="4" stroke-width="2.0800" d="M21.334 15.16c0.037 0.235 0.058 0.506 0.058 0.783 0 2.071-1.181 3.866-2.905 4.75l-0.030 0.014c-0.698 0.359-1.524 0.57-2.398 0.57-1.473 0-2.806-0.597-3.771-1.562v0c-0.965-0.965-1.562-2.298-1.562-3.771 0-0.874 0.21-1.7 0.584-2.428l-0.014 0.030c0.897-1.755 2.693-2.935 4.764-2.935 2.669 0 4.881 1.961 5.272 4.521l0.004 0.030zM23.334 8.666h0.016"></path>
</symbol>
<symbol id="icon-facebook-1" viewBox="0 0 32 32">
<path fill="none" stroke="" style="stroke" stroke-linejoin="round" stroke-linecap="round" stroke-miterlimit="4" stroke-width="2.0800" d="M24.001 2.666h-4c-3.682 0-6.667 2.985-6.667 6.667v0 4h-4v5.333h4v10.667h5.333v-10.667h4l1.333-5.333h-5.333v-4c0-0 0-0 0-0 0-0.736 0.597-1.333 1.333-1.333 0 0 0 0 0 0h4v-5.333z"></path>
</symbol>
<symbol id="icon-twitter-1" viewBox="0 0 32 32">
<path fill="none" stroke="" style="stroke" stroke-linejoin="round" stroke-linecap="round" stroke-miterlimit="4" stroke-width="2.0800" d="M30.668 4.001c-1.2 0.856-2.59 1.552-4.084 2.013l-0.103 0.027c-1.101-1.261-2.712-2.054-4.507-2.054-3.299 0-5.973 2.674-5.973 5.973 0 0.028 0 0.056 0.001 0.084l-0-0.004v1.333c-0.11 0.003-0.239 0.005-0.368 0.005-4.79 0-9.027-2.37-11.602-6.001l-0.030-0.044s-5.333 12 6.667 17.333c-2.442 1.677-5.462 2.679-8.717 2.679-0.217 0-0.433-0.004-0.647-0.013l0.031 0.001c12 6.667 26.667 0 26.667-15.333-0.001-0.392-0.040-0.775-0.113-1.145l0.006 0.038c1.323-1.305 2.293-2.963 2.758-4.822l0.015-0.071z"></path>
</symbol>
<symbol id="icon-Icon-1" viewBox="0 0 48 32">
<path fill="none" stroke="" style="stroke" stroke-linejoin="round" stroke-linecap="round" stroke-miterlimit="4" stroke-width="4" d="M3 16h42M3 2h42M3 30h28"></path>
</symbol>
<symbol id="icon-burger" viewBox="0 0 48 32">
<path stroke-linejoin="round" stroke-linecap="round" stroke-miterlimit="4" stroke-width="4" d="M3 16h42M3 2h42M3 30h28"></path>
</symbol>
<symbol id="icon-x-close-1" viewBox="0 0 32 32">
<path stroke-linejoin="round" stroke-linecap="round" stroke-miterlimit="4" stroke-width="2.2857" d="M24 8l-16 16M8 8l16 16"></path>
</symbol>

</defs>
</svg>
